<svg xmlns="http://www.w3.org/2000/svg"  xml:space="preserve" style="shape-rendering:geometricPrecision;text-rendering:geometricPrecision;image-rendering:optimizeQuality;" viewBox="0 0 50 50" x="0px" y="0px" fill-rule="evenodd" clip-rule="evenodd"><defs><style type="text/css">
   
    .fil2 {fill:none}
    .fil1 {fill:black}
    .fil0 {fill:black;fill-rule:nonzero}
   
  </style></defs><g><g><path class="fil0" d="M29.0924 26.6252l8.05975 0c0.106528,0 0.19289,0.0863661 0.19289,0.19289l0 1.9685e-005c0,1.09272 -0.446913,2.08597 -1.16687,2.80593 -0.71998,0.71998 -1.71323,1.16687 -2.80595,1.16687l-0.499882 0c-1.09272,0 -2.08597,-0.446894 -2.80595,-1.16687 -0.719961,-0.719961 -1.16688,-1.71321 -1.16688,-2.80593l0 -1.9685e-005c0,-0.106524 0.0863661,-0.19289 0.192894,-0.19289z"/><path class="fil1" d="M33.1222 19.6205l-2.9473 7.34106c-0.0788858,0.196457 -0.304354,0.292921 -0.50089,0.214154 -0.196575,-0.0788071 -0.293114,-0.304449 -0.214213,-0.501024l3.30485 -8.23163c0.0788858,-0.196461 0.304354,-0.292921 0.50089,-0.214154 0.0978307,0.0392244 0.174949,0.116382 0.214213,0.214154l3.30487 8.23163c0.0789016,0.196575 -0.0176378,0.422217 -0.214213,0.501024 -0.196535,0.0787677 -0.422004,-0.0176969 -0.50089,-0.214154l-2.94731 -7.34106z"/><path class="fil0" d="M12.8479 26.6252l8.05975 0c0.106528,0 0.192894,0.0863661 0.192894,0.19289l0 1.9685e-005c0,1.09272 -0.446917,2.08597 -1.16688,2.80593 -0.719976,0.71998 -1.71323,1.16687 -2.80595,1.16687l-0.499882 0c-1.09272,0 -2.08597,-0.446894 -2.80595,-1.16687 -0.719961,-0.719961 -1.16687,-1.71321 -1.16687,-2.80593l0 -1.9685e-005c0,-0.106524 0.0863622,-0.19289 0.19289,-0.19289z"/><path class="fil1" d="M16.8778 19.6205l-2.94731 7.34106c-0.0788858,0.196457 -0.304354,0.292921 -0.50089,0.214154 -0.196575,-0.0788071 -0.293114,-0.304449 -0.214213,-0.501024l3.30487 -8.23163c0.0788858,-0.196461 0.304354,-0.292921 0.50089,-0.214154 0.0978307,0.0392244 0.174949,0.116382 0.214213,0.214154l3.30485 8.23163c0.0789016,0.196575 -0.0176378,0.422217 -0.214213,0.501024 -0.196535,0.0787677 -0.422004,-0.0176969 -0.50089,-0.214154l-2.9473 -7.34106z"/><path class="fil1" d="M17.0812 18.9138c-0.179921,0.111709 -0.418835,0.0561024 -0.530732,-0.123748 -0.111937,-0.179941 -0.0562717,-0.419173 0.123803,-0.53098 4.42469,-2.74706 12.1269,-2.80916 16.6514,0 0.180079,0.111807 0.235744,0.351039 0.123803,0.53098 -0.111898,0.17985 -0.350807,0.235457 -0.530732,0.123748 -4.16999,-2.58916 -11.5646,-2.65306 -15.8376,0z"/><path class="fil0" d="M26.1301 17.368l0 14.9529 -2.26017 0 0 -14.9529c0.750965,-0.0450748 1.50922,-0.0450906 2.26017,3.54331e-005z"/><path class="fil0" d="M21.3505 32.7067l7.29891 0c0.613315,0 1.17078,0.346748 1.57483,0.905335 0.404063,0.558583 0.65487,1.32929 0.65487,2.17714 0,0.106528 -0.0624724,0.19289 -0.139528,0.19289l-11.4793 0c-0.0770551,0 -0.139528,-0.0863622 -0.139528,-0.19289 0,-0.847846 0.250803,-1.61856 0.65487,-2.17714 0.404055,-0.558587 0.96152,-0.905335 1.57483,-0.905335z"/><path class="fil1" d="M26.1301 15.8211l-2.26732 0 0 -0.669496c0,-0.623496 0.510157,-1.13365 1.13365,-1.13365l1.5748e-005 0c0.623496,0 1.13365,0.510154 1.13365,1.13365l0 0.669496z"/></g></g><path class="fil0" d="M25.3858 0.222713l10.4404 6.0278 -0.000759843 0.00131102 10.4382 6.02647 0.388799 0.22448 0 0.441594 0 12.0556 0 12.0556 0 0.441594 -0.388799 0.22448 -10.4382 6.02647 0.000759843 0.00131102 -10.4404 6.0278 -0.38578 0.222717 -0.38578 -0.222717 -10.4404 -6.0278 0.000759843 -0.00131102 -10.4382 -6.02647 -0.388799 -0.22448 0 -0.441594 0 -12.0556 0 -12.0556 0 -0.441594 0.388799 -0.22448 10.4382 -6.02647 -0.000759843 -0.00131102 10.4404 -6.0278 0.38578 -0.222717 0.38578 0.222717zm-0.385799 2.45002l-7.66078 4.42294 0.000759843 0.00132677 -11.6778 6.74214 0 22.3217 11.6778 6.74214 -0.000759843 0.00131102 7.66081 4.42296 7.66078 -4.42294 -0.000759843 -0.00132677 11.6778 -6.74214 0 -22.3217 -11.6778 -6.74214 0.000759843 -0.00131102 -7.66081 -4.42296z"/><rect class="fil2" width="50" height="50"/></svg>
